<svg width="1122" height="751" viewBox="0 0 1122 751" fill="none" xmlns="http://www.w3.org/2000/svg">
<path d="M821.355 559.508C867.544 579.857 792.316 582.373 691.25 590.375C590.184 598.607 533.02 591.29 457.793 590.147C382.793 589.003 271.667 594.262 264.121 571.855C256.347 549.447 319.227 534.356 324.943 521.781C330.431 509.434 191.408 516.293 194.838 501.888C195.981 497.087 200.326 492.743 207.414 488.856C268.694 454.787 534.164 451.586 663.354 450.671C807.407 449.528 956.72 447.47 1016.17 481.539C1024.17 486.112 1027.6 489.999 1027.37 493.428C1026.46 515.836 875.547 516.979 830.502 524.067C777.911 532.07 775.167 539.158 821.355 559.508Z" fill="#C7D4FF"/>
<path d="M753.673 522.012C787.743 535.273 732.18 536.645 657.638 541.904C582.867 546.934 540.566 542.361 485.231 541.447C429.668 540.532 347.809 543.962 342.093 529.328C336.376 514.695 382.793 505.092 386.909 497.089C391.025 489.086 288.13 493.431 290.645 483.828C291.56 480.626 294.761 477.883 299.791 475.368C345.065 453.417 541.252 451.817 636.602 451.131C742.927 450.445 876.919 443.357 897.269 465.078C907.102 475.596 793.46 494.574 760.076 498.918C721.433 504.177 719.375 508.75 753.673 522.012Z" fill="#99ADF9"/>
<path d="M821.356 559.51C867.544 579.86 792.316 582.375 691.25 590.377C590.184 598.609 533.02 591.292 457.793 590.149C382.793 589.006 271.667 594.265 264.121 571.857C256.347 549.449 319.227 534.359 324.943 521.783C330.431 509.436 191.408 516.296 194.838 501.891C195.981 497.089 200.326 492.745 207.414 488.858C209.244 492.288 216.561 495.717 236.911 497.318C283.328 500.747 348.952 503.263 352.839 513.094C356.727 522.926 288.358 549.907 297.047 563.626C305.736 577.116 489.804 571.628 599.788 575.515C709.771 579.402 807.636 572.314 795.06 564.769C782.484 557.224 751.844 540.532 774.938 525.441C798.033 510.351 925.394 507.836 979.128 502.577C995.421 501.3 1011.52 498.233 1027.15 493.431C1026.23 515.838 875.318 516.981 830.273 524.07C777.911 532.072 775.167 539.16 821.356 559.51Z" fill="#99ADF9"/>
<path d="M945.744 476.968C931.796 478.111 932.94 491.83 956.72 488.629C980.271 485.657 972.954 474.682 945.744 476.968Z" fill="#99ADF9"/>
<path d="M863.2 487.257C849.252 488.401 850.395 502.119 874.175 498.918C897.955 496.175 890.41 484.971 863.2 487.257Z" fill="#99ADF9"/>
<path d="M262.52 481.541C248.572 482.684 249.716 496.403 273.496 493.202C297.276 490.458 289.73 479.483 262.52 481.541Z" fill="#99ADF9"/>
<path d="M337.062 528.871C323.114 530.014 324.257 543.733 348.038 540.532C371.589 537.56 364.272 526.585 337.062 528.871Z" fill="#99ADF9"/>
<path d="M1074.48 548.078C1058.7 558.824 1034.46 561.111 998.564 561.568C972.726 562.025 958.092 553.794 959.921 545.791C961.293 539.846 972.04 534.13 993.991 531.844C1034.92 527.728 1072.42 532.758 1077.45 540.761C1079.05 543.047 1078.14 545.562 1074.48 548.078Z" fill="#C7D4FF"/>
<path d="M300.249 447.93C281.27 458.905 251.545 461.877 207.186 463.249C175.402 464.164 157.11 456.39 159.397 448.387C160.997 442.442 174.03 436.269 201.012 433.754C251.088 428.723 297.505 432.839 304.136 440.842C305.965 442.899 304.822 445.186 300.249 447.93Z" fill="#C7D4FF"/>
<path d="M1027.6 109.302C1027.6 109.302 1058.7 106.101 1093.23 150.916C1120.67 186.356 1114.49 228.656 1114.49 228.656C1114.49 228.656 1135.53 185.213 1107.18 144.743C1076.76 101.528 1027.6 109.302 1027.6 109.302Z" fill="#C7D4FF"/>
<path d="M1011.14 249.006C1011.14 249.006 1019.37 268.212 1011.6 295.65C1003.82 323.088 989.189 334.52 989.189 334.52C997.505 331.713 1004.92 326.736 1010.67 320.103C1016.42 313.471 1020.29 305.424 1021.89 296.793C1028.52 265.926 1011.14 249.006 1011.14 249.006Z" fill="#C7D4FF"/>
<path d="M492.548 632.677L465.11 665.603C464.426 666.424 463.585 667.1 462.637 667.592C461.688 668.084 460.651 668.381 459.586 668.466C458.521 668.551 457.449 668.423 456.434 668.088C455.42 667.753 454.482 667.219 453.677 666.517C452.855 665.834 452.179 664.993 451.687 664.044C451.196 663.096 450.898 662.059 450.813 660.993C450.728 659.928 450.857 658.857 451.191 657.842C451.526 656.828 452.06 655.89 452.762 655.085L453.677 654.17L486.146 626.047C487.066 625.283 488.246 624.904 489.439 624.989C490.632 625.075 491.746 625.617 492.548 626.504C493.27 627.37 493.666 628.463 493.666 629.591C493.666 630.718 493.27 631.811 492.548 632.677Z" fill="#99ADF9"/>
<path d="M530.734 636.564L525.246 703.329C525.072 705.109 524.209 706.75 522.843 707.904C521.476 709.057 519.713 709.631 517.929 709.503C516.149 709.329 514.508 708.466 513.355 707.1C512.201 705.733 511.628 703.97 511.755 702.186V701.958L520.673 635.421C520.903 634.11 521.62 632.934 522.68 632.129C523.74 631.324 525.064 630.948 526.389 631.077C527.667 631.287 528.82 631.965 529.623 632.98C530.427 633.995 530.823 635.273 530.734 636.564Z" fill="#99ADF9"/>
<path d="M569.834 634.049L587.898 681.379C588.662 683.375 588.607 685.592 587.745 687.548C586.883 689.504 585.284 691.04 583.296 691.824C581.307 692.607 579.09 692.574 577.126 691.731C575.161 690.889 573.609 689.305 572.806 687.324C572.599 686.982 572.518 686.577 572.578 686.181L561.145 636.793C560.893 635.612 561.11 634.379 561.75 633.355C562.39 632.331 563.403 631.596 564.575 631.305C565.635 631.048 566.753 631.184 567.72 631.689C568.687 632.194 569.439 633.032 569.834 634.049Z" fill="#99ADF9"/>
<path d="M606.648 626.504L633.858 644.796C635.647 645.978 636.893 647.823 637.321 649.924C637.75 652.025 637.327 654.21 636.144 655.999C634.962 657.788 633.117 659.034 631.016 659.463C628.914 659.892 626.729 659.468 624.94 658.286C624.516 658.039 624.131 657.731 623.797 657.371L600.245 634.506C599.758 634.054 599.369 633.505 599.103 632.895C598.838 632.286 598.701 631.628 598.701 630.962C598.701 630.297 598.838 629.639 599.103 629.029C599.369 628.42 599.758 627.871 600.245 627.418C600.989 626.471 602.07 625.847 603.263 625.677C604.455 625.506 605.668 625.803 606.648 626.504Z" fill="#99ADF9"/>
<path d="M1085.68 284.215C1072.19 326.287 1013.2 347.78 1013.2 347.78L1015.03 345.95C1023.49 336.347 1058.47 291.99 1028.52 234.37C994.677 168.977 882.864 191.384 882.864 191.384L880.349 175.15L877.605 158.23C877.605 158.23 938.427 104.041 1020.51 134.908C1098.72 164.404 1099.17 242.373 1085.68 284.215Z" fill="#FEC272"/>
<path d="M1042.24 320.801C1035.83 330.862 1025.77 339.322 1015.26 345.953C1023.72 336.349 1058.7 291.992 1028.75 234.372C994.905 168.979 883.092 191.387 883.092 191.387L880.577 175.153C904.815 171.723 968.838 166.235 1012.28 191.387C1063.96 221.34 1063.73 287.19 1042.24 320.801Z" fill="#FCAA51"/>
<path d="M902.528 242.828C901.385 279.183 895.44 310.736 887.208 329.028C869.602 368.813 857.254 391.449 831.416 411.57C820.307 420.033 808.443 427.457 795.975 433.749C743.155 461.415 599.331 463.245 599.331 463.245C593.614 463.702 587.898 464.159 582.181 464.388C529.819 467.132 480.429 461.415 450.018 444.953C435.842 437.407 425.781 427.347 421.436 415C407.031 372.929 401.772 308.678 497.35 145.881C558.858 41.1604 635.687 -0.224913 708.399 0.232383C747.042 0.46103 784.313 12.5794 817.697 33.1577C819.069 34.0723 820.669 34.9869 822.041 35.9015C886.522 77.5154 904.815 169.889 902.528 242.828Z" fill="#FEC272"/>
<path d="M708.399 0.00374483C665.412 17.381 599.331 60.5955 539.423 168.06C463.28 304.563 451.39 405.397 449.79 444.724C435.613 437.179 425.552 427.118 421.208 414.771C406.802 372.7 401.543 308.45 497.121 145.653C559.087 40.9317 635.915 -0.453551 708.399 0.00374483Z" fill="#FFCB8D"/>
<path d="M902.528 242.83C901.385 279.185 895.44 310.739 887.208 329.031C862.971 383.449 848.794 405.856 795.975 433.523C743.155 461.189 599.331 463.018 599.331 463.018C593.614 463.476 587.898 463.933 582.181 464.161C580.581 442.44 586.068 413.173 598.873 374.989C637.745 258.378 699.482 215.392 769.222 201.902C829.358 190.47 876.233 219.737 902.528 242.83Z" fill="#FCAA51"/>
<path d="M902.528 242.832C901.385 279.187 895.44 310.741 887.208 329.033C869.602 368.817 857.254 391.454 831.416 411.575C852.023 354.084 863.068 293.606 864.114 232.543C865.715 135.139 838.733 69.06 817.697 33.1622C819.069 34.0768 820.669 34.9914 822.041 35.906C886.522 77.5199 904.815 169.894 902.528 242.832Z" fill="#FCAA51"/>
<path d="M903.672 259.75C900.013 302.507 882.178 371.102 865.486 416.603C858.855 434.666 852.453 449.299 846.965 456.845C837.819 469.878 819.984 475.594 802.148 476.737C783.399 478.109 764.42 474.908 755.731 470.106C739.725 461.646 699.939 388.708 708.857 309.138C709.314 304.337 710 299.535 710.915 294.733C726.921 209.905 766.707 186.126 827.072 192.756C839.357 193.926 851.473 196.457 863.2 200.302C887.437 208.99 906.873 225.453 903.672 259.75Z" fill="#FEC272"/>
<path d="M865.486 416.603C858.855 434.666 852.453 449.299 846.965 456.845C828.215 483.597 772.88 479.252 755.731 470.335C739.725 461.875 699.939 388.936 708.857 309.367C713.887 346.179 732.18 397.854 793.231 411.115C822.727 417.746 846.508 418.661 865.486 416.603Z" fill="#FCAA51"/>
<path d="M903.672 259.75C900.013 302.507 882.178 371.102 865.486 416.603C858.855 434.666 852.453 449.299 846.965 456.845C837.819 469.878 819.983 475.594 802.148 476.737C820.212 444.269 861.828 355.782 863.885 232.312C864.114 221.337 863.885 210.591 863.428 200.302C887.437 208.99 906.873 225.453 903.672 259.75Z" fill="#FCAA51"/>
<path d="M845.364 487.026C842.349 487.637 839.291 488.019 836.218 488.169C833.246 488.398 830.044 488.855 826.386 489.084C819.526 489.541 811.752 489.999 803.749 490.227C800.548 490.227 797.118 490.456 793.917 490.456C787.057 490.685 780.426 490.456 774.252 490.456H771.737C769.222 490.456 766.707 490.227 764.649 490.227C763.734 490.227 762.82 489.999 762.134 489.999C759.279 489.784 756.449 489.325 753.673 488.627C739.725 484.282 731.265 470.564 742.012 453.872C752.759 437.181 776.082 423.919 806.95 423.919C837.819 423.919 863.657 441.983 865.029 461.418C866.401 480.624 859.77 484.282 845.364 487.026Z" fill="#FEC272"/>
<path d="M803.978 459.817V490.227C800.776 490.227 797.347 490.456 794.145 490.456V459.817C794.144 458.522 794.643 457.276 795.537 456.339C796.432 455.402 797.653 454.846 798.947 454.787C800.265 454.837 801.516 455.383 802.448 456.316C803.381 457.249 803.927 458.499 803.978 459.817Z" fill="#FFA245"/>
<path d="M774.71 460.274V490.456H772.194C769.679 490.456 767.164 490.227 765.106 490.227V460.503C765.056 459.149 765.525 457.826 766.417 456.806C767.31 455.786 768.559 455.145 769.908 455.016C770.572 455.034 771.226 455.186 771.831 455.462C772.435 455.739 772.977 456.134 773.426 456.625C773.874 457.116 774.218 457.692 774.439 458.319C774.66 458.946 774.752 459.611 774.71 460.274Z" fill="#FFA245"/>
<path d="M836.447 459.817V488.169C833.474 488.398 830.273 488.855 826.615 489.084V459.817C826.613 458.522 827.112 457.276 828.006 456.339C828.901 455.402 830.122 454.846 831.416 454.787C832.734 454.837 833.985 455.383 834.918 456.316C835.85 457.249 836.396 458.499 836.447 459.817Z" fill="#FFA245"/>
<path d="M460.765 308.454C442.015 347.782 455.506 443.357 442.015 472.852C428.525 502.348 391.94 517.439 354.44 516.753C350.428 516.685 346.437 516.148 342.55 515.152C310.995 507.378 288.587 472.395 306.194 431.01C325.858 384.594 372.504 361.272 391.94 292.449C409.546 230.714 434.241 219.739 459.393 216.995C467.853 216.081 473.112 219.739 476.085 226.37C483.631 243.061 474.484 280.102 460.765 308.454Z" fill="#FF8D76"/>
<path d="M460.765 308.454C442.015 347.782 455.506 443.357 442.015 472.852C428.525 502.348 391.94 517.439 354.44 516.753C350.428 516.685 346.437 516.148 342.55 515.152C337.519 503.491 335.462 486.114 342.093 460.963C358.784 397.856 391.025 385.966 396.97 341.608C403.144 297.251 403.83 269.813 419.836 245.805C434.241 224.312 468.539 225.684 476.085 226.37C483.631 243.061 474.484 280.102 460.765 308.454Z" fill="#FC7059"/>
<path d="M760.533 438.098C758.085 445.592 754.026 452.459 748.643 458.219C728.064 480.626 690.564 487.943 668.613 484.285C641.175 479.712 614.193 424.608 616.937 383.68C619.681 342.752 590.184 289.019 582.867 262.268C577.379 242.375 578.294 227.284 584.239 218.138C586.256 215.012 589.002 212.423 592.242 210.593C599.788 206.706 627.684 194.588 656.723 238.031C685.534 281.703 683.476 305.025 715.716 337.264C747.957 369.732 772.652 399.914 760.533 438.098Z" fill="#FF8D76"/>
<path d="M748.871 458.214C728.292 480.622 690.793 487.939 668.842 484.28C641.403 479.707 614.422 424.603 617.166 383.675C619.91 342.747 590.413 289.015 583.096 262.263C577.608 242.371 578.523 227.28 584.468 218.134C601.846 215.619 629.284 218.363 642.089 254.26C661.754 308.907 659.01 337.031 689.421 363.783C719.832 390.535 744.984 419.573 748.871 457.757V458.214Z" fill="#FC7059"/>
<path d="M710.686 475.816C707.713 500.967 694.451 517.887 664.04 528.633C618.538 544.639 576.236 523.374 559.544 520.631C542.395 517.658 516.557 534.121 490.49 543.267C464.423 552.641 415.491 556.071 389.424 530.234C375.32 515.794 366.741 496.855 365.187 476.73C363.478 458.025 368.24 439.3 378.678 423.684C402 388.929 414.348 354.861 418.006 287.867C421.665 220.873 473.798 193.893 523.874 189.548C539.651 188.176 583.553 185.89 616.937 215.386C650.549 244.881 647.806 305.244 659.238 334.74C670.671 364.235 701.54 382.299 708.857 432.601C711.372 449.292 712.287 463.469 710.686 475.816Z" fill="#FEC272"/>
<path d="M580.121 436.497C573.49 454.561 557.256 467.593 546.28 467.593C535.305 467.593 514.04 457.076 503.75 447.472C492.775 437.183 492.089 427.351 494.604 420.721C494.661 420.377 494.82 420.058 495.061 419.806C498.034 413.404 515.869 407.688 538.277 404.715C555.426 402.429 574.862 401.971 579.435 404.944C580.783 405.98 581.878 407.309 582.636 408.831C584.923 414.09 585.152 423.236 580.121 436.497Z" fill="#FCAA51"/>
<path d="M710.686 475.825C707.713 500.976 694.451 517.896 664.04 528.642C618.538 544.648 576.236 523.383 559.544 520.64C542.395 517.667 516.557 534.13 490.49 543.276C464.424 552.65 415.491 556.08 389.424 530.243C375.32 515.803 366.741 496.864 365.187 476.739C375.934 494.345 398.342 524.298 427.839 529.328C469.911 536.416 494.835 498.918 553.142 498.918C628.141 498.918 633.629 527.499 680.503 503.034C692.512 496.391 702.838 487.083 710.686 475.825V475.825Z" fill="#FCAA51"/>
<path d="M578.751 501.891C578.34 507.45 577.422 512.961 576.008 518.353C571.663 534.359 553.828 544.191 539.194 534.359C529.819 528.185 525.246 514.009 523.188 504.406C522.045 498.69 521.587 494.803 521.587 494.803L549.484 465.078L579.209 485.657C578.98 485.657 579.437 492.745 578.751 501.891Z" fill="#FC7059"/>
<path d="M578.751 501.891C564.346 503.263 551.084 493.888 551.084 493.888C546.324 498.2 540.717 501.471 534.621 503.491C530.954 504.773 527.036 505.164 523.188 504.634C522.045 498.918 521.587 495.031 521.587 495.031L549.484 465.307L579.209 485.885C578.98 485.657 579.437 492.745 578.751 501.891Z" fill="#F45145"/>
<path d="M461.222 474.681C454.591 482.227 470.369 499.375 495.978 502.805C521.816 506.235 546.282 492.516 549.026 481.77C551.77 471.023 549.255 453.875 549.255 453.875H540.566C540.566 453.875 543.31 478.34 521.13 488.172C486.832 503.262 465.795 469.194 461.222 474.681Z" fill="#1C3177"/>
<path d="M553.371 449.073C553.371 449.073 554.971 472.166 576.236 480.626C597.273 489.086 606.876 483.599 614.879 479.94C623.568 475.825 623.568 467.136 629.742 469.651C632.943 471.023 631.8 482.456 620.824 489.772C607.791 498.461 594.986 499.604 577.151 495.26C559.316 490.916 549.712 482.913 547.426 473.081C545.139 463.249 543.767 452.045 543.767 452.045L553.371 449.073Z" fill="#1C3177"/>
<path d="M580.121 426.208C573.49 444.271 557.256 457.304 546.28 457.304C535.305 457.304 514.04 446.786 503.75 437.183C492.775 426.894 492.089 417.062 494.604 410.431C494.661 410.088 494.82 409.769 495.061 409.517C498.034 403.115 515.869 397.399 538.277 394.426C555.426 392.14 574.862 391.682 579.435 394.655C580.783 395.691 581.878 397.02 582.636 398.542C584.923 404.029 585.152 412.947 580.121 426.208Z" fill="#1C3177"/>
<path d="M580.121 426.208C573.49 444.271 557.256 457.304 546.28 457.304C535.305 457.304 514.04 446.786 503.75 437.183C492.775 426.894 492.089 417.062 494.604 410.431C495.278 410.448 495.94 410.622 496.535 410.94C497.131 411.257 497.644 411.71 498.034 412.261C503.521 418.205 508.323 431.01 528.216 442.213C548.338 453.417 557.484 445.186 566.402 433.525C575.319 421.864 576.92 401.743 581.264 398.999C581.722 398.77 581.95 398.542 582.408 398.542C584.923 404.029 585.152 412.947 580.121 426.208Z" fill="#0B2359"/>
<path d="M461.908 396.255C471.127 396.255 478.6 385.199 478.6 371.561C478.6 357.923 471.127 346.867 461.908 346.867C452.69 346.867 445.216 357.923 445.216 371.561C445.216 385.199 452.69 396.255 461.908 396.255Z" fill="#1C3177"/>
<path d="M611.545 384.257C620.714 383.297 626.994 371.523 625.573 357.959C624.152 344.395 615.567 334.178 606.399 335.138C597.23 336.099 590.95 347.873 592.371 361.437C593.792 375.001 602.377 385.218 611.545 384.257Z" fill="#1C3177"/>
<path d="M450.476 293.821C442.819 300.243 436.919 308.504 433.326 317.829C430.582 324.46 433.784 326.975 441.787 327.204C449.79 327.432 463.28 317.6 470.597 306.168C477.914 294.507 464.881 281.245 450.476 293.821Z" fill="#FF8D76"/>
<path d="M610.532 279.185C619.016 284.476 626.142 291.68 631.34 300.221C635.227 306.394 632.255 309.367 624.48 310.739C616.477 312.111 601.843 304.565 592.697 294.505C583.551 284.444 594.298 269.125 610.532 279.185Z" fill="#FF8D76"/>
<path d="M28.5962 779.698C18.078 779.469 11.2183 779.012 10.075 779.012C7.23841 778.794 4.59898 777.477 2.71952 775.342C0.840066 773.206 -0.130714 770.421 0.0141682 767.58C0.0841478 766.161 0.437931 764.772 1.05458 763.493C1.67123 762.214 2.53821 761.071 3.60421 760.133C4.67021 759.195 5.91357 758.48 7.26069 758.031C8.60781 757.582 10.0313 757.408 11.447 757.519C12.5902 757.519 92.1625 765.75 157.787 738.77C182.024 728.938 195.515 720.021 198.03 712.933C199.859 707.674 195.744 699.9 188.884 687.553C186.597 683.437 184.082 679.093 181.567 674.291C178.864 669.057 177.341 663.295 177.104 657.409C176.867 651.523 177.922 645.657 180.195 640.223C195.058 603.639 257.938 579.402 276.917 573C382.327 536.874 461.671 550.821 464.872 551.507C467.662 552.079 470.123 553.707 471.742 556.05C473.361 558.393 474.012 561.271 473.561 564.083C473.03 566.895 471.411 569.384 469.057 571.01C466.703 572.637 463.802 573.27 460.985 572.772C460.299 572.543 383.47 559.281 283.776 593.578C240.332 608.441 207.405 630.162 199.859 648.454C198.722 651.032 198.193 653.836 198.312 656.651C198.431 659.466 199.195 662.215 200.545 664.688C202.832 669.032 205.119 673.377 207.405 677.264C215.637 691.668 223.182 705.387 218.152 720.249C213.35 734.426 197.573 745.858 165.79 758.891C112.056 780.841 64.2665 780.613 28.5962 779.698Z" fill="#1C3177"/>
<path d="M442.93 579.174C446.817 588.32 456.192 594.036 471.741 596.78C495.292 600.895 510.383 594.95 510.383 594.95L509.926 586.262L506.725 535.502C492.868 534.082 478.868 535.482 465.567 539.618C447.046 545.791 439.043 555.852 440.643 571.171C441.055 573.927 441.824 576.617 442.93 579.174Z" fill="#F0F6FF"/>
<path d="M506.392 535.015C501.729 535.311 498.804 549.036 499.859 565.672C500.914 582.307 505.55 595.553 510.213 595.257C514.876 594.962 517.801 581.236 516.746 564.601C515.691 547.965 511.055 534.719 506.392 535.015Z" fill="#C2D7EF"/>
<path d="M442.93 579.174C446.817 588.32 456.192 594.036 471.741 596.78C495.292 600.895 510.383 594.951 510.383 594.951L509.926 586.262C500.78 585.805 489.118 585.119 477.914 583.975C461.908 581.918 450.018 580.317 442.93 579.174Z" fill="#C2D7EF"/>
<path d="M533.48 556.538L512.672 558.595C511.341 558.704 510.02 558.286 508.994 557.43C507.967 556.575 507.318 555.352 507.184 554.022L506.956 552.651C506.847 551.319 507.266 549.998 508.121 548.972C508.976 547.946 510.2 547.296 511.529 547.163L532.337 545.105C533.821 544.962 535.301 545.41 536.457 546.352C537.613 547.294 538.35 548.653 538.51 550.135C538.645 550.892 538.617 551.669 538.431 552.414C538.244 553.16 537.902 553.857 537.427 554.462C536.953 555.066 536.356 555.563 535.675 555.921C534.995 556.279 534.247 556.489 533.48 556.538Z" fill="#87AACC"/>
<path d="M535.538 582.146L514.73 584.204C513.399 584.313 512.078 583.894 511.052 583.039C510.025 582.184 509.376 580.96 509.242 579.631L509.014 578.259C508.905 576.928 509.324 575.607 510.179 574.581C511.034 573.555 512.258 572.905 513.587 572.772L534.395 570.714C535.879 570.571 537.359 571.019 538.515 571.961C539.671 572.902 540.408 574.262 540.568 575.744C540.702 576.501 540.675 577.277 540.489 578.023C540.302 578.768 539.96 579.466 539.485 580.07C539.01 580.675 538.413 581.172 537.733 581.53C537.053 581.887 536.305 582.098 535.538 582.146Z" fill="#87AACC"/>
<path d="M1089.56 774.896C1074.01 774.439 937.275 769.409 897.717 720.478C870.965 687.324 886.742 664.917 900.461 645.024C903.662 640.451 906.864 635.65 909.836 630.848C912.207 627.015 913.5 622.613 913.581 618.107C913.661 613.6 912.526 609.155 910.293 605.24C905.492 596.322 887.656 575.287 826.834 572.772C739.716 568.885 626.76 573.686 625.617 573.915C622.767 574.036 619.985 573.02 617.884 571.091C615.783 569.161 614.534 566.476 614.413 563.626C614.291 560.775 615.307 557.994 617.237 555.893C619.167 553.792 621.852 552.543 624.702 552.422C625.845 552.422 739.945 547.392 827.977 551.279C897.031 554.48 921.04 580.088 929.272 595.179C933.269 602.328 935.31 610.404 935.19 618.593C935.069 626.782 932.791 634.795 928.586 641.823C925.449 647.194 922.014 652.385 918.296 657.371C904.806 676.806 897.946 686.638 914.638 707.217C943.677 743.114 1052.29 752.946 1091.62 753.632C1094.47 753.693 1097.18 754.883 1099.15 756.941C1101.12 759 1102.2 761.757 1102.14 764.607C1102.08 767.457 1100.88 770.167 1098.83 772.139C1096.77 774.112 1094.01 775.186 1091.16 775.125C1090.65 774.952 1090.1 774.875 1089.56 774.896Z" fill="#1C3177"/>
<path d="M639.574 570.483C636.373 579.857 627.684 586.488 612.364 590.375C589.27 596.32 573.721 591.518 573.721 591.518L573.492 582.83L572.578 532.07C586.194 529.412 600.216 529.646 613.736 532.756C632.714 537.329 641.403 546.703 641.175 562.251C641.017 565.055 640.479 567.824 639.574 570.483Z" fill="#F0F6FF"/>
<path d="M639.574 570.483C636.373 579.857 627.684 586.488 612.364 590.375C589.27 596.32 573.721 591.518 573.721 591.518L573.492 582.83C582.639 581.687 594.071 580.086 605.276 577.8C621.053 574.827 632.486 572.312 639.574 570.483Z" fill="#C2D7EF"/>
<path d="M573.799 591.947C578.47 591.861 582.008 578.28 581.701 561.614C581.394 544.948 577.358 531.508 572.686 531.594C568.014 531.68 564.476 545.26 564.783 561.926C565.091 578.592 569.127 592.033 573.799 591.947Z" fill="#C2D7EF"/>
<path d="M573.198 559.709C574.334 559.688 575.172 555.167 575.07 549.612C574.967 544.057 573.963 539.57 572.827 539.591C571.69 539.612 570.852 544.133 570.955 549.688C571.057 555.243 572.061 559.73 573.198 559.709Z" fill="#87AACC"/>
<path d="M573.2 585.777C574.336 585.756 575.174 581.235 575.072 575.68C574.97 570.125 573.965 565.638 572.829 565.659C571.693 565.68 570.854 570.201 570.957 575.756C571.059 581.311 572.063 585.798 573.2 585.777Z" fill="#87AACC"/>
<path d="M428.065 567.512C428.108 569.269 428.032 571.026 427.836 572.771C426.693 584.432 420.977 592.892 408.629 598.609C404.69 600.41 400.542 601.716 396.282 602.496C386.132 604.727 375.8 606.028 365.413 606.383C362.669 606.611 359.697 606.611 356.496 606.611H349.865C342.09 606.611 334.773 606.383 327.914 605.925C323.341 605.468 318.767 604.782 314.88 604.096C297.96 600.438 286.984 592.435 284.926 576.658C286.298 588.319 261.603 512.408 356.038 503.491C399.712 499.147 428.065 541.447 428.065 567.512Z" fill="#FCAA51"/>
<path d="M428.065 567.51C428.108 569.266 428.032 571.023 427.836 572.769C418.69 585.116 397.196 591.061 356.038 591.747C323.341 592.433 297.045 590.146 284.926 576.428C286.298 588.089 261.603 512.177 356.038 503.26C399.712 499.144 428.065 541.444 428.065 567.51Z" fill="#FEC272"/>
<path d="M327.914 605.923C323.341 605.466 318.767 604.78 314.88 604.094C313.558 593.017 313.252 581.843 313.966 570.711C315.566 554.477 321.74 553.563 323.569 556.535C325.398 559.508 324.255 576.885 326.313 592.89C326.77 597.463 327.456 602.036 327.914 605.923Z" fill="#FFA245"/>
<path d="M408.629 598.606C404.69 600.408 400.543 601.713 396.282 602.493C395.824 598.149 395.367 592.89 394.681 587.403C392.852 571.397 387.593 554.706 388.507 551.505C389.422 548.304 395.824 547.618 401.084 563.166C404.875 574.671 407.405 586.555 408.629 598.606Z" fill="#FFA245"/>
<path d="M365.413 606.38C362.669 606.609 359.697 606.609 356.496 606.609H349.865C349.865 600.436 349.636 592.204 349.179 584.659C348.493 569.797 348.035 560.194 352.608 559.279C357.182 558.364 361.983 574.827 364.041 592.204C364.727 598.149 365.185 602.722 365.413 606.38Z" fill="#FFA245"/>
<path d="M654.201 555.63C654.23 557.391 654.383 559.149 654.658 560.889C656.03 572.55 661.747 581.01 674.094 586.269C678.096 587.902 682.226 589.202 686.442 590.156C696.61 592.208 706.94 593.356 717.31 593.585C720.054 593.585 723.027 593.814 726.228 593.814H732.859C740.193 593.914 747.526 593.532 754.81 592.671C759.191 592.244 763.543 591.557 767.843 590.613C784.535 586.726 795.51 578.723 797.34 562.718C800.312 535.737 768.986 494.124 725.313 490.465C681.64 486.807 653.744 529.335 654.201 555.63Z" fill="#FCAA51"/>
<path d="M654.201 555.63C654.23 557.391 654.383 559.149 654.658 560.889C664.033 573.236 685.527 578.723 726.685 578.952C759.383 579.181 785.678 576.437 797.568 562.718C800.541 535.737 769.215 494.124 725.542 490.465C681.64 486.807 653.744 529.335 654.201 555.63Z" fill="#FEC272"/>
<path d="M754.814 592.664C759.196 592.237 763.548 591.55 767.848 590.606C769.092 579.52 769.245 568.339 768.305 557.223C766.476 540.989 760.302 540.075 758.473 543.047C756.872 546.02 758.244 563.397 756.415 579.402C755.958 584.204 755.272 588.548 754.814 592.664Z" fill="#FFA245"/>
<path d="M674.099 586.262C678.101 587.895 682.23 589.195 686.446 590.149C686.675 585.804 687.132 580.546 687.818 575.058C689.419 559.053 694.449 542.361 693.306 539.16C692.391 535.959 685.989 535.273 680.73 550.821C677.426 562.404 675.206 574.268 674.099 586.262V586.262Z" fill="#FFA245"/>
<path d="M717.315 593.35C720.059 593.35 723.031 593.578 726.232 593.578H732.863C732.863 587.405 732.863 579.174 733.092 571.628C733.549 556.766 733.778 547.163 729.434 546.248C724.86 545.334 720.287 562.025 718.458 579.402C717.772 585.347 717.543 589.92 717.315 593.35Z" fill="#FFA245"/>
</svg>
