<svg width="613" height="371" viewBox="0 0 613 371" fill="none" xmlns="http://www.w3.org/2000/svg">
<path d="M218.992 75.5859H229.715V105.996H218.992V135H184.715V105.996H129.344V78.8379L163.006 1.58203H198.953L165.818 76.1133H184.715V50.1855H218.992V75.5859ZM299.412 30.4102C292.264 30.4102 286.961 32.3145 283.504 36.123C280.047 39.9316 278.318 45.8203 278.318 53.7891C278.318 58.9453 278.67 63.9258 279.373 68.7305C280.135 73.5352 281.307 78.2812 282.889 82.9688C285.174 90.4102 287.752 96.0938 290.623 100.02C293.553 103.887 296.482 105.82 299.412 105.82C301.521 105.82 303.631 104.795 305.74 102.744C307.908 100.635 310.047 97.4707 312.156 93.252C314.734 87.6855 316.756 81.5332 318.221 74.7949C319.744 67.998 320.506 61.3184 320.506 54.7559C320.506 46.2598 318.807 40.1074 315.408 36.2988C313.709 34.3652 311.541 32.9004 308.904 31.9043C306.326 30.9082 303.162 30.4102 299.412 30.4102ZM243.953 51.1523C243.953 33.9258 248.523 21.0938 257.664 12.6562C266.805 4.21875 280.721 0 299.412 0C318.104 0 332.02 4.21875 341.16 12.6562C350.301 21.0352 354.871 33.8672 354.871 51.1523C354.871 56.8945 354.549 62.3145 353.904 67.4121C353.26 72.4512 352.205 77.6367 350.74 82.9688C348.104 93.0469 344.119 102.422 338.787 111.094C332.986 120.41 326.863 127.295 320.418 131.748C314.031 136.201 307.029 138.428 299.412 138.428C291.912 138.428 284.939 136.23 278.494 131.836C272.049 127.383 265.955 120.469 260.213 111.094C254.939 102.48 250.896 93.0469 248.084 82.793C245.33 72.5391 243.953 61.9922 243.953 51.1523ZM459.109 75.5859H469.832V105.996H459.109V135H424.832V105.996H369.461V78.8379L403.123 1.58203H439.07L405.936 76.1133H424.832V50.1855H459.109V75.5859ZM90.1445 247.289H36.707V268.031H85.4863L76.6094 298.09H36.707V320.941H94.627L85.0469 351H0.847656V217.582H82.0586L90.1445 247.289ZM110.887 253.09H146.746V351H110.887V253.09ZM189.021 293.783C194.939 304.857 201.092 315.053 207.479 324.369C213.865 333.686 220.574 342.035 227.605 349.418L199.129 370.6C189.168 359.408 179.91 346.986 171.355 333.334C163.035 319.916 155.066 304.74 147.449 287.807C158.23 280.834 166.082 274.77 171.004 269.613C175.926 264.398 178.387 259.799 178.387 255.814C178.387 253.295 177.479 251.303 175.662 249.838C173.846 248.373 171.297 247.641 168.016 247.641H104.646L112.732 217.582H175.223C188.582 217.582 198.953 220.57 206.336 226.547C213.777 232.465 217.498 240.756 217.498 251.42C217.498 259.682 215.154 267.299 210.467 274.271C205.838 281.186 198.689 287.689 189.021 293.783ZM237.625 253.09H273.484V351H237.625V253.09ZM315.76 293.783C321.678 304.857 327.83 315.053 334.217 324.369C340.604 333.686 347.312 342.035 354.344 349.418L325.867 370.6C315.906 359.408 306.648 346.986 298.094 333.334C289.773 319.916 281.805 304.74 274.188 287.807C284.969 280.834 292.82 274.77 297.742 269.613C302.664 264.398 305.125 259.799 305.125 255.814C305.125 253.295 304.217 251.303 302.4 249.838C300.584 248.373 298.035 247.641 294.754 247.641H231.385L239.471 217.582H301.961C315.32 217.582 325.691 220.57 333.074 226.547C340.516 232.465 344.236 240.756 344.236 251.42C344.236 259.682 341.893 267.299 337.205 274.271C332.576 281.186 325.428 287.689 315.76 293.783ZM392.664 270.141C392.664 276.469 393.279 282.768 394.51 289.037C395.799 295.248 397.703 301.195 400.223 306.879C402.508 312.152 405.115 316.254 408.045 319.184C411.033 322.055 414.08 323.49 417.186 323.49C419.236 323.49 421.287 322.846 423.338 321.557C425.389 320.209 427.176 318.393 428.699 316.107C432.625 310.014 435.73 303.012 438.016 295.102C440.301 287.133 441.443 279.135 441.443 271.107C441.443 262.143 439.656 255.844 436.082 252.211C432.508 248.578 426.209 246.762 417.186 246.762C408.162 246.762 401.805 248.549 398.113 252.123C394.48 255.639 392.664 261.645 392.664 270.141ZM417.186 216C437.928 216 453.191 220.189 462.977 228.568C472.762 236.947 477.654 250.102 477.654 268.031C477.654 280.512 475.691 292.67 471.766 304.506C467.84 316.342 462.42 326.508 455.506 335.004C450.291 341.391 444.49 346.225 438.104 349.506C431.775 352.787 424.803 354.428 417.186 354.428C409.451 354.428 402.391 352.846 396.004 349.682C389.617 346.459 383.816 341.566 378.602 335.004C371.688 326.391 366.268 316.195 362.342 304.418C358.416 292.641 356.453 280.512 356.453 268.031C356.453 250.16 361.346 237.035 371.131 228.656C380.975 220.219 396.326 216 417.186 216ZM495.672 253.09H531.531V351H495.672V253.09ZM573.807 293.783C579.725 304.857 585.877 315.053 592.264 324.369C598.65 333.686 605.359 342.035 612.391 349.418L583.914 370.6C573.953 359.408 564.695 346.986 556.141 333.334C547.82 319.916 539.852 304.74 532.234 287.807C543.016 280.834 550.867 274.77 555.789 269.613C560.711 264.398 563.172 259.799 563.172 255.814C563.172 253.295 562.264 251.303 560.447 249.838C558.631 248.373 556.082 247.641 552.801 247.641H489.432L497.518 217.582H560.008C573.367 217.582 583.738 220.57 591.121 226.547C598.562 232.465 602.283 240.756 602.283 251.42C602.283 259.682 599.939 267.299 595.252 274.271C590.623 281.186 583.475 287.689 573.807 293.783Z" fill="#FC7059"/>
</svg>
